<?xml version="1.0" encoding="utf-8"?>
<!-- Generator: Adobe Illustrator 28.0.0, SVG Export Plug-In . SVG Version: 6.00 Build 0)  -->
<svg version="1.1" id="Layer_1" xmlns="http://www.w3.org/2000/svg" xmlns:xlink="http://www.w3.org/1999/xlink" x="0px" y="0px"
	 viewBox="0 0 512 512" style="enable-background:new 0 0 512 512;" xml:space="preserve">
<style type="text/css">
	.st0{fill:#FFFFFF;}
</style>
<path class="st0" d="M469.9,192H433v-54c0-5.5-4.3-10-9.9-10h-381c-5.6,0-10.1,4.5-10.1,10v236c0,5.5,4.5,10,10.1,10h381.1
	c5.5,0,9.9-4.5,9.9-10v-54H470c5.6,0,10.1-4.5,10.1-10V202C480,196.5,475.5,192,469.9,192z M448,288h-14.8H401v32v32H64V160h337v32
	v32h32.2H448V288z"/>
</svg>
