<?xml version="1.0" encoding="utf-8"?>
<!-- Generator: Adobe Illustrator 28.0.0, SVG Export Plug-In . SVG Version: 6.00 Build 0)  -->
<svg version="1.1" id="Layer_1" xmlns="http://www.w3.org/2000/svg" xmlns:xlink="http://www.w3.org/1999/xlink" x="0px" y="0px"
	 viewBox="0 0 512 512" style="enable-background:new 0 0 512 512;" xml:space="preserve">
<style type="text/css">
	.st0{fill:#FFFFFF;}
</style>
<path class="st0" d="M346.6,304.3c-51.5-45.8-129.2-45.8-180.7,0c-8.8,7.6-9.7,20.9-2.1,29.6s20.9,9.7,29.6,2.1
	c0.1-0.1,0.3-0.3,0.4-0.4c35.6-31.7,89.3-31.7,124.9,0c8.7,7.7,21.9,6.9,29.7-1.7S355.3,312,346.6,304.3L346.6,304.3z"/>
<path class="st0" d="M256.3,183.7c-56.4-0.1-110.7,21.4-151.8,59.9c-8.6,7.7-9.4,21-1.6,29.7s21,9.4,29.7,1.6
	c0.2-0.2,0.4-0.4,0.7-0.6c69.3-64.8,176.9-64.8,246.2,0c8.3,8.1,21.6,7.9,29.7-0.4c8.1-8.3,7.9-21.6-0.4-29.7
	c-0.2-0.2-0.4-0.4-0.7-0.6C367,205.1,312.7,183.6,256.3,183.7z"/>
<path class="st0" d="M462,175.9c-117.2-104.6-294.2-104.6-411.4,0c-8.8,7.5-9.9,20.8-2.3,29.6s20.8,9.9,29.6,2.3
	c0.2-0.2,0.5-0.4,0.7-0.6c101.3-90.3,254.2-90.3,355.4,0c8.6,7.7,21.9,7,29.7-1.7S470.6,183.6,462,175.9L462,175.9z"/>
<circle class="st0" cx="256.3" cy="393.4" r="32"/>
</svg>
